# xmcd
#
# Track frame offsets:
#	150
#	10791
#	32590
#	67609
#	112785
#	150410
#	192233
#	230225
#
# Disc length: 3356 seconds
# Revision: 0
# Processed by: cddbd v1.5.2PL0 Copyright (c) Steve Scherf et al.
# Submitted via: dBpowerAMP V12.0
#
DISCID=510d1a08
DTITLE=Hilary Mantel - Wölfe CD6
DYEAR=1900
DGENRE=
TTITLE0=056
TTITLE1=057
TTITLE2=058
TTITLE3=059
TTITLE4=060
TTITLE5=061
TTITLE6=062
TTITLE7=063
EXTD=
EXTT0=
EXTT1=
EXTT2=
EXTT3=
EXTT4=
EXTT5=
EXTT6=
EXTT7=
PLAYORDER=
